# xmcd CD database file generated by OrangeCD 5.2
#
# Track frame offsets:
#	150
#	15781
#	28047
#	39712
#	54751
#	67550
#	80091
#	93868
#	103297
#	119663
#
# Disc length: 1757 seconds
#
# Revision: 0
# Processed by: cddbd v1.5.1PL0 Copyright (c) Steve Scherf et al.
# Submitted via: OrangeCD 5.2
#
DISCID=7206db0a
DTITLE=Johnny Cash - The Last Gunfighter Ballads
DYEAR=1977
DGENRE=Country
TTITLE0=I Will Dance With You
TTITLE1=The Last Gunfighter Ballad
TTITLE2=Johnny Cash and June Carter Cash - Far Side Banks Of Jordan
TTITLE3=Ridin' On The Cotton Belt
TTITLE4=Give It Away
TTITLE5=You're So Close
TTITLE6=City Jail
TTITLE7=Cindy I Love You
TTITLE8=Ballad Of Barbara
TTITLE9=Johnny Cash and Tommy Cash - That Silver Haired Daddy Of Mine
EXTD=
EXTT0=
EXTT1=
EXTT2=
EXTT3=
EXTT4=
EXTT5=
EXTT6=
EXTT7=
EXTT8=
EXTT9=
PLAYORDER=
